<svg width="800" height="749" viewBox="0 0 800 749" fill="none" xmlns="http://www.w3.org/2000/svg">
<path d="M210.281 643.09H226.562V584.78H327.475V643.09H343.784V584.78H449.458V643.09H465.793V584.78H578.226V643.09H594.507V584.78H688.005V568.527H594.507V462.88H688.005V446.572H594.507V350.283H688.005V334.03H594.507V268.989H578.226V334.03H465.793V268.989H449.458V334.03H343.784V268.989H327.475V334.03H226.535V268.989H210.281V334.03H102.528V350.283H210.281V446.572H102.528V462.88H210.281V568.527H102.528V584.78H210.281V643.09ZM343.756 568.527V462.88H449.431V568.527H343.756ZM578.226 568.527H465.793V462.88H578.226V568.527ZM578.226 350.283V446.572H465.793V350.283C465.793 350.31 578.226 350.31 578.226 350.283ZM449.458 350.283V446.572H343.784V350.283C343.784 350.31 449.458 350.31 449.458 350.283ZM226.535 350.283H327.448V446.572H226.535V350.283ZM226.535 462.88H327.448V568.527H226.535V462.88Z" fill="#888888"/>
<path d="M799.179 32.4938L686.199 32.6033L669.699 32.658V99.6416C669.699 117.509 655.088 132.121 637.193 132.121H599.213C581.263 132.121 566.707 117.537 566.707 99.6416V32.7675L523.392 32.8222V99.6416C523.392 117.509 508.753 132.121 490.803 132.121H452.823C434.901 132.121 420.317 117.537 420.317 99.6416V32.8495L374.293 32.959V99.669C374.293 117.537 359.681 132.148 341.759 132.148H303.752C285.884 132.148 271.245 117.564 271.245 99.669V33.0685H223.853V99.669C223.853 117.537 209.269 132.148 191.347 132.148H153.367C135.417 132.148 120.833 117.564 120.833 99.669V33.2053L0 33.3147V748.929H57.1878H742.894L800 748.764L799.179 32.4938ZM742.894 691.987H57.1878V234.785H742.894V691.987Z" fill="#888888"/>
<path d="M153.367 109.082H191.347C195.807 109.082 199.446 105.443 199.446 100.955V-12.8733C199.446 -17.3881 195.807 -21 191.347 -21H153.367C148.852 -21 145.213 -17.3881 145.213 -12.8733V100.955C145.213 105.443 148.852 109.082 153.367 109.082Z" fill="#888888"/>
<path d="M303.752 109.082H341.759C346.246 109.082 349.885 105.443 349.885 100.955V-12.8733C349.858 -17.3881 346.219 -21 341.731 -21H303.725C299.265 -21 295.625 -17.3881 295.625 -12.8733V100.955C295.653 105.443 299.292 109.082 303.752 109.082Z" fill="#888888"/>
<path d="M452.823 109.082H490.803C495.345 109.082 498.984 105.443 498.984 100.955V-12.8733C498.957 -17.3881 495.345 -21 490.803 -21H452.823C448.336 -21 444.697 -17.3881 444.697 -12.8733V100.955C444.697 105.443 448.336 109.082 452.823 109.082Z" fill="#888888"/>
<path d="M599.213 109.082H637.193C641.68 109.082 645.292 105.443 645.292 100.955V-12.8733C645.292 -17.3881 641.68 -21 637.193 -21H599.213C594.726 -21 591.087 -17.3881 591.087 -12.8733V100.955C591.114 105.443 594.726 109.082 599.213 109.082Z" fill="#888888"/>
</svg>
